#N canvas 22 60 450 300 10;
#X obj 41 64 notein 0;
#X obj 41 101 mtof;
#X obj 41 143 osc~;
#X obj 41 184 *~;
#X obj 83 122 * 0.5;
#X obj 40 216 dac~ 1 2;
#X obj 94 145 sig~;
#X obj 94 167 lop~ 10;
#X obj 86 100 / 127;
#X connect 0 0 1 0;
#X connect 0 1 8 0;
#X connect 1 0 2 0;
#X connect 2 0 3 0;
#X connect 3 0 5 0;
#X connect 3 0 5 1;
#X connect 4 0 6 0;
#X connect 6 0 7 0;
#X connect 7 0 3 1;
#X connect 8 0 4 0;
