#N canvas 158 23 1039 689 10;
#X obj 36 162 *~ 1000;
#X obj 36 135 adc~ 3;
#X obj 293 162 adc~ 5;
#X text 33 22 Simple FM;
#X text 33 32 =========;
#X obj 36 431 +~;
#X obj 109 373 osc~;
#X obj 109 414 *~;
#X obj 109 333 *~;
#X obj 174 355 *~;
#X obj 36 457 osc~;
#X obj 36 573 dac~ 1 2;
#X obj 36 267 receive~ frequency;
#X obj 124 296 receive~ harmonicRatio;
#X obj 189 326 receive~ modulationIndex;
#X obj 36 184 send~ frequency;
#X obj 154 184 send~ harmonicRatio;
#X obj 293 184 send~ modulationIndex;
#X text 33 55 Simple frequency modulation synthesis. Use the first
three;
#X text 33 69 analog inputs to change frequency \, harmonic ratio and
;
#X text 33 83 modulation index.;
#X text 445 15 ............................;
#X text 445 25 . ____ ._____ _ .......___ .;
#X text 445 35 .| __ )| ____| |....../ _ |.;
#X text 445 55 .| |_) | |___| |___ / ___ |.;
#X text 445 65 .|____/|_____|_____/_/..._|.io;
#X text 445 75 ............................;
#X text 445 45 .| __ || __|.| |...../ _| |.;
#X obj 212 510 dac~ 27 28 29 30;
#X obj 243 480 adc~ 3 4 5;
#X text 333 508 << Output to these channels for scope;
#X obj 603 192 loadbang;
#X obj 603 243 float;
#X obj 645 243 + 1;
#X obj 669 378 sig~ 1;
#X obj 669 400 s~ seq-freq;
#X obj 41 351 r~ seq-freq;
#X obj 408 398 vline~;
#X obj 36 482 *~;
#X obj 603 221 metro 250;
#X obj 645 265 % 8;
#X obj 645 287 select 0 1 2 3 4 5 6 7;
#X obj 153 136 adc~ 6;
#X obj 759 137 snapshot~;
#X obj 853 82 loadbang;
#X obj 853 111 metro 10;
#X obj 758 182 * 1000;
#X obj 822 244 s tempo;
#X obj 664 191 r tempo;
#X msg 408 370 1 \$1 \, 0 \$1 400;
#X obj 476 316 r tempo;
#X obj 451 339 f;
#X obj 759 81 adc~ 4;
#X obj 26 378 *~;
#X msg 675 315 1.2;
#X msg 705 315 1.5;
#X msg 735 315 2;
#X msg 645 315 1;
#X msg 765 315 1.5;
#X msg 795 315 1.2;
#X msg 825 315 1;
#X msg 855 315 1.2;
#X obj 665 544 dac~ 3;
#X obj 638 478 sig~ 1;
#X obj 636 448 tgl 15 0 empty empty empty 17 7 0 10 -262144 -1 -1 0
1;
#X text 359 478 Show FSR on scope;
#X obj 759 103 clip~ 0 0.8;
#X obj 759 159 + 0.05;
#X obj 759 203 select 0.85;
#X msg 758 226 1e+10;
#X connect 0 0 15 0;
#X connect 1 0 0 0;
#X connect 2 0 17 0;
#X connect 5 0 10 0;
#X connect 6 0 7 0;
#X connect 7 0 5 1;
#X connect 8 0 9 0;
#X connect 8 0 6 0;
#X connect 9 0 7 1;
#X connect 10 0 38 0;
#X connect 12 0 8 0;
#X connect 12 0 53 0;
#X connect 13 0 8 1;
#X connect 14 0 9 1;
#X connect 29 0 28 1;
#X connect 29 1 28 2;
#X connect 29 2 28 3;
#X connect 31 0 39 0;
#X connect 32 0 33 0;
#X connect 33 0 32 1;
#X connect 33 0 40 0;
#X connect 34 0 35 0;
#X connect 36 0 53 1;
#X connect 37 0 38 1;
#X connect 38 0 11 1;
#X connect 38 0 11 0;
#X connect 38 0 28 0;
#X connect 39 0 32 0;
#X connect 39 0 51 0;
#X connect 39 0 64 0;
#X connect 40 0 41 0;
#X connect 41 0 57 0;
#X connect 41 1 54 0;
#X connect 41 2 55 0;
#X connect 41 3 56 0;
#X connect 41 4 58 0;
#X connect 41 5 59 0;
#X connect 41 6 60 0;
#X connect 41 7 61 0;
#X connect 42 0 16 0;
#X connect 43 0 67 0;
#X connect 44 0 45 0;
#X connect 45 0 43 0;
#X connect 46 0 68 0;
#X connect 48 0 39 1;
#X connect 49 0 37 0;
#X connect 50 0 51 1;
#X connect 51 0 49 0;
#X connect 52 0 66 0;
#X connect 53 0 5 0;
#X connect 54 0 34 0;
#X connect 55 0 34 0;
#X connect 56 0 34 0;
#X connect 57 0 34 0;
#X connect 58 0 34 0;
#X connect 59 0 34 0;
#X connect 60 0 34 0;
#X connect 61 0 34 0;
#X connect 63 0 62 0;
#X connect 64 0 63 0;
#X connect 66 0 43 0;
#X connect 67 0 46 0;
#X connect 68 0 69 0;
#X connect 68 1 47 0;
#X connect 69 0 47 0;
