#N canvas 388 23 1031 755 10;
#X obj 55 61 adc~ 1 2 3 4;
#X obj 81 356 DCBlocker;
#X obj 139 430 clip~ 0.0001 1;
#X obj 124 483 /~;
#X obj 124 456 sig~ 0.02;
#X obj 86 523 *~;
#X floatatom 113 553 5 0 0 0 - - -, f 5;
#X obj 76 625 dac~ 1 2 3 4;
#X obj 139 406 dbtorms~;
#X obj 366 24 hsl 128 15 0 1 0 0 empty empty delay1 -2 -8 0 10 -262144
-1 -1 2800 1;
#X obj 386 50 s delay1;
#X obj 389 88 hsl 128 15 0 1 0 0 empty empty delay2 -2 -8 0 10 -262144
-1 -1 4100 1;
#X obj 386 110 s delay2;
#X obj 145 224 r delay1;
#X obj 145 246 * 1000;
#X obj 285 246 * 1000;
#X obj 285 224 r delay2;
#X obj 285 297 line~;
#X obj 145 297 line~;
#X obj 286 272 pack 0 0;
#X obj 146 272 pack 0 0;
#X obj 389 148 hsl 128 15 0 1 0 0 empty empty delay_ramp -2 -8 0 10
-262144 -1 -1 8500 1;
#X obj 386 170 s ramp;
#X obj 215 244 r ramp;
#X obj 215 266 * 4000;
#X floatatom 179 361 5 0 0 0 - - -, f 5;
#X obj 25 103 delwrite~ del_1 1000;
#X obj 81 322 vd~ del_1 1000;
#X obj 222 324 vd~ del_1 1000;
#X obj 341 356 DCBlocker;
#X obj 399 430 clip~ 0.0001 1;
#X obj 384 483 /~;
#X obj 384 456 sig~ 0.02;
#X obj 346 523 *~;
#X floatatom 373 553 5 0 0 0 - - -, f 5;
#X obj 399 406 dbtorms~;
#X obj 405 246 * 1000;
#X obj 545 246 * 1000;
#X obj 545 297 line~;
#X obj 405 297 line~;
#X obj 546 272 pack 0 0;
#X obj 406 272 pack 0 0;
#X obj 475 244 r ramp;
#X obj 475 266 * 4000;
#X floatatom 439 361 5 0 0 0 - - -, f 5;
#X obj 341 322 vd~ del_2 1000;
#X obj 482 324 vd~ del_2 1000;
#X obj 165 103 delwrite~ del_2 1000;
#X obj 539 28 hsl 128 15 0 1 0 0 empty empty delay3 -2 -8 0 10 -262144
-1 -1 4000 1;
#X obj 539 88 hsl 128 15 0 1 0 0 empty empty delay4 -2 -8 0 10 -262144
-1 -1 2200 1;
#X obj 536 50 s delay3;
#X obj 536 110 s delay4;
#X obj 405 224 r delay3;
#X obj 545 224 r delay4;
#X obj 740 27 loadbang;
#X msg 740 49 0.5;
#X msg 770 49 0.2;
#X msg 800 49 0.3;
#X msg 830 49 0.7;
#X obj 740 74 s delay1;
#X obj 771 104 s delay2;
#X obj 801 74 s delay3;
#X obj 832 104 s delay4;
#X msg 860 49 0.5;
#X obj 862 74 s ramp;
#X obj 84 575 *~ 0.1;
#X obj 344 575 *~ 0.1;
#X obj 139 384 env~ 100;
#X obj 399 384 env~ 10;
#X connect 0 0 26 0;
#X connect 0 0 47 0;
#X connect 1 0 5 0;
#X connect 1 0 67 0;
#X connect 2 0 3 1;
#X connect 3 0 5 1;
#X connect 4 0 3 0;
#X connect 5 0 26 0;
#X connect 5 0 65 0;
#X connect 6 0 65 1;
#X connect 8 0 2 0;
#X connect 9 0 10 0;
#X connect 11 0 12 0;
#X connect 13 0 14 0;
#X connect 14 0 20 0;
#X connect 15 0 19 0;
#X connect 16 0 15 0;
#X connect 17 0 28 0;
#X connect 18 0 27 0;
#X connect 19 0 17 0;
#X connect 20 0 18 0;
#X connect 21 0 22 0;
#X connect 23 0 24 0;
#X connect 24 0 20 1;
#X connect 24 0 19 1;
#X connect 25 0 67 0;
#X connect 27 0 1 0;
#X connect 28 0 1 0;
#X connect 29 0 33 0;
#X connect 29 0 68 0;
#X connect 30 0 31 1;
#X connect 31 0 33 1;
#X connect 32 0 31 0;
#X connect 33 0 47 0;
#X connect 33 0 66 0;
#X connect 34 0 66 1;
#X connect 35 0 30 0;
#X connect 36 0 41 0;
#X connect 37 0 40 0;
#X connect 38 0 46 0;
#X connect 39 0 45 0;
#X connect 40 0 38 0;
#X connect 41 0 39 0;
#X connect 42 0 43 0;
#X connect 43 0 41 1;
#X connect 43 0 40 1;
#X connect 44 0 68 0;
#X connect 45 0 29 0;
#X connect 46 0 29 0;
#X connect 48 0 50 0;
#X connect 49 0 51 0;
#X connect 52 0 36 0;
#X connect 53 0 37 0;
#X connect 54 0 55 0;
#X connect 54 0 56 0;
#X connect 54 0 57 0;
#X connect 54 0 58 0;
#X connect 54 0 63 0;
#X connect 55 0 59 0;
#X connect 56 0 60 0;
#X connect 57 0 61 0;
#X connect 58 0 62 0;
#X connect 63 0 64 0;
#X connect 65 0 7 0;
#X connect 66 0 7 1;
#X connect 67 0 8 0;
#X connect 68 0 35 0;
