#N canvas 544 81 654 396 10;
#X obj 20 362 dac~;
#X obj 42 303 hsl 128 15 0 1 0 0 empty empty empty -2 -8 0 10 -262144
-1 -1 1270 1;
#X obj 21 332 *~;
#N canvas 1010 23 450 300 midi 0;
#X text 31 39 setting are mapped as follow :;
#X text 28 232 these values can be set in [pd init_and_midi];
#X text 30 111 CH1 CC1 piety;
#X text 30 131 CH1 CC2 holyness;
#X text 30 151 CH1 CC3 modulation;
#X text 30 171 CH1 CC4 rate;
#X text 30 91 CH1 notein notes;
#X restore 327 275 pd midi controls;
#X text 196 129 settings :;
#X text 210 158 - piety and holyness set the filter's fequency and
resonance;
#X text 210 185 - modulation adds a mix of vibrato and tremolo for
a 60's vibe;
#X text 210 225 - rate sets the lfo speed;
#X text 196 50 8 voices church organ made using 4 oscillators (1 triangle
and 4 anti-aliased pulse wave with duty cycle at 17%);
#N canvas 58 113 951 446 listen 1;
#X obj 45 368 outlet;
#X msg 355 306 stop;
#X obj 54 77 f;
#X obj 92 77 + 1;
#X obj 126 78 mod 4;
#X obj 21 19 tgl 15 0 empty empty test_chords 17 7 0 10 -262144 -1
-1 1 1;
#X obj 88 279 + 3;
#X obj 142 277 + 7;
#X msg 44 307 \$1 1;
#X msg 96 308 \$1 1;
#X msg 148 308 \$1 1;
#X obj 54 103 t f b;
#X obj 334 56 sel 0;
#X obj 54 158 sel 0 1 2 3;
#X msg 44 188 48;
#X msg 89 191 53;
#X msg 134 190 60;
#X msg 175 190 65;
#X obj 54 47 metro 1000;
#X obj 268 158 del 950;
#X obj 192 278 + 12;
#X msg 197 311 \$1 1;
#X connect 1 0 0 0;
#X connect 2 0 3 0;
#X connect 2 0 11 0;
#X connect 3 0 4 0;
#X connect 4 0 2 1;
#X connect 5 0 12 0;
#X connect 5 0 18 0;
#X connect 6 0 9 0;
#X connect 7 0 10 0;
#X connect 8 0 0 0;
#X connect 9 0 0 0;
#X connect 10 0 0 0;
#X connect 11 0 13 0;
#X connect 11 1 19 0;
#X connect 12 0 1 0;
#X connect 13 0 14 0;
#X connect 13 1 15 0;
#X connect 13 2 16 0;
#X connect 13 3 17 0;
#X connect 14 0 8 0;
#X connect 14 0 6 0;
#X connect 14 0 7 0;
#X connect 14 0 20 0;
#X connect 15 0 6 0;
#X connect 15 0 7 0;
#X connect 15 0 8 0;
#X connect 15 0 20 0;
#X connect 16 0 6 0;
#X connect 16 0 7 0;
#X connect 16 0 8 0;
#X connect 16 0 20 0;
#X connect 17 0 7 0;
#X connect 17 0 6 0;
#X connect 17 0 8 0;
#X connect 17 0 20 0;
#X connect 18 0 2 0;
#X connect 19 0 1 0;
#X connect 20 0 21 0;
#X connect 21 0 0 0;
#X coords 0 -1 1 1 160 30 2 10 10;
#X restore 20 48 pd listen;
#X obj 40 260 loadbang;
#X text 196 96 left inlet accepts midi notes (midi number + velocity)
;
#X obj 20 90 benedict_XVI;
#X msg 39 280 0.1;
#X connect 1 0 2 1;
#X connect 2 0 0 0;
#X connect 2 0 0 1;
#X connect 9 0 12 0;
#X connect 10 0 13 0;
#X connect 12 0 2 0;
#X connect 13 0 1 0;
