#N canvas 405 23 935 689 10;
#X obj 108 77 pack f f;
#X obj 369 149 r \$0-settings;
#X obj 108 142 pack f f f;
#X obj 465 545 s \$0-settings;
#X obj 465 461 mtof;
#X msg 465 486 freq \$1;
#X msg 559 464 res \$1;
#X obj 107 503 hip~ 10;
#X obj 107 451 lop~ 5000;
#X msg 674 437 mod \$1;
#X msg 795 473 rate \$1;
#X obj 795 418 * 9;
#X obj 795 445 + 1;
#X obj 674 412 * 0.01;
#X obj 559 434 + 1;
#X obj 559 409 * 2;
#X obj 465 406 * 30;
#X obj 465 433 + 50;
#X obj 674 378 r \$0-modulation;
#X obj 795 379 r \$0-rate;
#X obj 465 376 r \$0-piety;
#X obj 559 376 r \$0-holyness;
#X obj 107 534 *~ 0.2;
#X obj 107 565 outlet~;
#N canvas 84 215 1183 404 init_and_midi 0;
#X obj 10 51 loadbang;
#X obj 102 51 loadbang;
#X obj 215 54 loadbang;
#X obj 238 165 / 127;
#X obj 340 48 loadbang;
#X obj 361 159 / 127;
#X obj 24 167 / 127;
#X obj 122 167 / 127;
#X msg 340 74 0.5;
#X msg 215 80 0.5;
#X obj 10 235 s \$0-piety;
#X obj 102 234 s \$0-holyness;
#X obj 215 230 s \$0-modulation;
#X obj 340 232 s \$0-rate;
#X msg 10 78 0.5;
#X msg 102 77 0.5;
#X obj 24 142 ctlin 1 1;
#X obj 122 142 ctlin 2 1;
#X obj 238 140 ctlin 3 1;
#X obj 361 134 ctlin 4 1;
#X obj 477 265 s \$0-piety;
#X obj 737 266 s \$0-rate;
#X obj 636 266 s \$0-modulation;
#X obj 547 265 s \$0-holyness;
#X obj 469 93 f;
#X obj 497 93 + 1;
#X obj 523 93 mod 100;
#X obj 579 93 f;
#X obj 607 93 + 1;
#X obj 633 93 mod 120;
#X obj 689 93 f;
#X obj 717 93 + 1;
#X obj 743 93 mod 140;
#X obj 799 93 f;
#X obj 827 93 + 1;
#X obj 853 93 mod 200;
#X obj 579 118 / 120;
#X obj 469 118 / 100;
#X obj 689 116 / 140;
#X obj 799 117 / 200;
#X obj 471 61 metro 150;
#X connect 0 0 14 0;
#X connect 1 0 15 0;
#X connect 2 0 9 0;
#X connect 3 0 12 0;
#X connect 4 0 8 0;
#X connect 4 0 40 0;
#X connect 5 0 13 0;
#X connect 6 0 10 0;
#X connect 7 0 11 0;
#X connect 8 0 13 0;
#X connect 9 0 12 0;
#X connect 14 0 10 0;
#X connect 15 0 11 0;
#X connect 16 0 6 0;
#X connect 17 0 7 0;
#X connect 18 0 3 0;
#X connect 19 0 5 0;
#X connect 24 0 25 0;
#X connect 24 0 37 0;
#X connect 25 0 26 0;
#X connect 26 0 24 1;
#X connect 27 0 28 0;
#X connect 27 0 36 0;
#X connect 28 0 29 0;
#X connect 29 0 27 1;
#X connect 30 0 31 0;
#X connect 30 0 38 0;
#X connect 31 0 32 0;
#X connect 32 0 30 1;
#X connect 33 0 34 0;
#X connect 33 0 39 0;
#X connect 34 0 35 0;
#X connect 35 0 33 1;
#X connect 36 0 23 0;
#X connect 37 0 20 0;
#X connect 38 0 22 0;
#X connect 39 0 21 0;
#X connect 40 0 24 0;
#X connect 40 0 27 0;
#X connect 40 0 30 0;
#X connect 40 0 33 0;
#X restore 504 258 pd init_and_midi;
#X obj 51 41 inlet;
#X obj 108 42 notein 1;
#X obj 108 201 voice_BXVI 1;
#X obj 134 233 voice_BXVI 2;
#X obj 164 271 voice_BXVI 3;
#X obj 194 301 voice_BXVI 4;
#X obj 108 111 poly 4 1;
#X text 287 560 test comment;
#X connect 0 0 31 0;
#X connect 1 0 27 1;
#X connect 1 0 28 1;
#X connect 1 0 29 1;
#X connect 1 0 30 1;
#X connect 2 0 27 0;
#X connect 2 0 28 0;
#X connect 2 0 29 0;
#X connect 2 0 30 0;
#X connect 4 0 5 0;
#X connect 5 0 3 0;
#X connect 6 0 3 0;
#X connect 7 0 22 0;
#X connect 8 0 7 0;
#X connect 9 0 3 0;
#X connect 10 0 3 0;
#X connect 11 0 12 0;
#X connect 12 0 10 0;
#X connect 13 0 9 0;
#X connect 14 0 6 0;
#X connect 15 0 14 0;
#X connect 16 0 17 0;
#X connect 17 0 4 0;
#X connect 18 0 13 0;
#X connect 19 0 11 0;
#X connect 20 0 16 0;
#X connect 21 0 15 0;
#X connect 22 0 23 0;
#X connect 25 0 31 0;
#X connect 26 0 0 0;
#X connect 26 1 0 1;
#X connect 27 0 8 0;
#X connect 28 0 8 0;
#X connect 29 0 8 0;
#X connect 30 0 8 0;
#X connect 31 0 2 0;
#X connect 31 1 2 1;
#X connect 31 2 2 2;
#X coords 0 -1 1 1 160 160 1 500 10;
