#N canvas 370 22 1357 532 10;
#X obj 578 55 adc~ 3 4;
#X obj 578 112 *~ 24;
#X obj 578 134 +~ 31;
#X obj 578 156 /~ 12;
#X obj 557 196 pow~;
#X obj 559 263 osc~;
#X obj 580 454 dac~ 1 2;
#X obj 559 233 *~ 22.5;
#X text 665 54 < read from analog inputs 0 + 1;
#X text 665 194 < convert from linear to exponential;
#X text 665 234 < freq of bottom semitone;
#X text 665 134 < scale 0-1 to range of freq control;
#X text 665 344 < mulitply to control the amplitude;
#X text 665 454 < send to audio out L + R;
#X obj 559 299 expr~ tanh($v1);
#X text 665 298 < soft clipping distortion;
#X text 665 262 < sinetone oscillator;
#X text 665 388 < reverb courtesy of Katja Vetter;
#X obj 576 388 vfreeverb-;
#X obj 506 164 sig~ 2;
#X obj 599 345 *~;
#X connect 0 0 1 0;
#X connect 0 1 20 1;
#X connect 1 0 2 0;
#X connect 2 0 3 0;
#X connect 3 0 4 1;
#X connect 4 0 7 0;
#X connect 5 0 14 0;
#X connect 7 0 5 0;
#X connect 14 0 20 0;
#X connect 18 0 6 0;
#X connect 18 0 6 1;
#X connect 19 0 4 0;
#X connect 20 0 18 0;
